<?xml version="1.0" encoding="iso-8859-1"?>
<!-- Generator: Adobe Illustrator 16.0.0, SVG Export Plug-In . SVG Version: 6.00 Build 0)  -->
<!DOCTYPE svg PUBLIC "-//W3C//DTD SVG 1.1//EN" "http://www.w3.org/Graphics/SVG/1.1/DTD/svg11.dtd">
<svg version="1.1" id="Capa_1" xmlns="http://www.w3.org/2000/svg" xmlns:xlink="http://www.w3.org/1999/xlink" x="0px" y="0px"
	 width="98.786px" height="98.787px" viewBox="0 0 98.786 98.787" style="enable-background:new 0 0 98.786 98.787;"
	 xml:space="preserve">
<g>
	<g>
		<path d="M71.546,37.365H27.189c-2.862,0-5.175,2.167-5.175,5.025v34.613c0,2.869,2.313,5.307,5.175,5.307h18.325v5.727H38.71
			c-2.604,0-4.844,2.116-4.844,4.715v3.051h31.049v-3.051c0-2.599-1.998-4.715-4.597-4.715H53.27V82.31h18.275
			c2.859,0,5.225-2.438,5.225-5.307V42.39C76.771,39.533,74.406,37.365,71.546,37.365z M69,74.546H29.699V45.131h0.138H69V74.546z"
			/>
		<path d="M79.007,18.105c-0.7-0.058-1.344-0.417-1.761-0.982c-4.025-5.45-10.491-8.813-17.37-8.813
			c-0.438,0-0.877,0.013-1.315,0.04c-0.582,0.036-1.153-0.138-1.617-0.489c-4.187-3.164-9.26-4.877-14.574-4.877
			c-9.516,0-17.962,5.519-21.899,13.875c-0.352,0.746-1.057,1.264-1.873,1.377C8.104,19.693,0,28.723,0,39.61
			c0,10.595,7.681,19.41,17.763,21.222v-8.715c-5.354-1.639-9.26-6.624-9.26-12.507c0-7.211,5.866-13.077,13.078-13.077
			c0.364,0,0.722,0.029,1.079,0.058c2.078,0.16,3.959-1.188,4.465-3.203c1.759-7.007,8.028-11.902,15.245-11.902
			c4.124,0,8.026,1.592,10.989,4.483c1.013,0.988,2.449,1.407,3.836,1.119c0.882-0.183,1.785-0.276,2.682-0.276
			c5.049,0,9.557,2.837,11.768,7.406c0.775,1.606,2.474,2.563,4.25,2.381c0.441-0.045,0.883-0.066,1.312-0.066
			c7.211,0,13.078,5.866,13.078,13.077c0,5.883-3.907,10.869-9.261,12.507v8.715C91.105,59.02,98.786,50.205,98.786,39.61
			C98.785,28.319,90.066,19.024,79.007,18.105z"/>
		<g>
			<path d="M59.98,59.845c-0.791-5.249-5.183-9.32-10.578-9.646v-0.792c0-0.318-0.18-0.608-0.464-0.75
				c-0.285-0.143-0.625-0.11-0.879,0.081l-3.817,2.882c-0.21,0.158-0.333,0.406-0.333,0.67c0,0.262,0.124,0.51,0.333,0.668
				l3.817,2.881c0.254,0.19,0.594,0.223,0.879,0.08s0.464-0.433,0.464-0.75v-0.74c3.227,0.314,5.849,2.723,6.402,5.871
				c0.125,0.673,0.703,1.158,1.385,1.158h1.402c0.409,0,0.801-0.174,1.064-0.485C59.925,60.664,60.043,60.251,59.98,59.845z"/>
			<path d="M50.727,63.658c-0.254-0.191-0.595-0.223-0.879-0.08c-0.285,0.143-0.464,0.432-0.464,0.75v0.739
				c-3.227-0.315-5.849-2.724-6.401-5.871c-0.125-0.673-0.704-1.157-1.386-1.157h-1.402c-0.409,0-0.8,0.174-1.064,0.484
				c-0.269,0.309-0.387,0.719-0.325,1.126c0.792,5.249,5.183,9.319,10.578,9.647v0.791c0,0.318,0.18,0.609,0.464,0.752
				c0.284,0.142,0.625,0.109,0.879-0.082l3.816-2.883c0.209-0.158,0.333-0.406,0.333-0.668c0-0.264-0.124-0.512-0.333-0.67
				L50.727,63.658z"/>
		</g>
	</g>
</g>
<g>
</g>
<g>
</g>
<g>
</g>
<g>
</g>
<g>
</g>
<g>
</g>
<g>
</g>
<g>
</g>
<g>
</g>
<g>
</g>
<g>
</g>
<g>
</g>
<g>
</g>
<g>
</g>
<g>
</g>
</svg>
